<?xml version="1.0" encoding="UTF-8" standalone="no"?>
<!-- Created with Inkscape (http://www.inkscape.org/) -->

<svg
   version="1.1"
   id="svg1"
   width="800"
   height="500"
   viewBox="0 0 800 500"
   xml:space="preserve"
   xmlns="http://www.w3.org/2000/svg"
   xmlns:svg="http://www.w3.org/2000/svg"><defs
     id="defs1" /><g
     id="g1"
     transform="translate(-105.5435,-253.9653)"><path
       id="path17"
       style="fill:#7a9a6c;fill-opacity:1;stroke:none"
       d="M 636.69717,414.87222 C 616.47239,412.2715 598.03482,399.0106 588.90699,380.5 573.38129,349.01497 585.78047,310.44692 616.20376,295.59251 626.22434,290.69989 633.69096,289 645.16088,289 c 12.83667,0 18.4433,1.25865 29.72676,6.67348 31.38489,15.06129 43.86512,52.6947 28.13072,84.82652 -9.16974,18.72587 -27.07187,31.47151 -48.34072,34.41678 -8.62439,1.19428 -8.34105,1.19499 -17.98047,-0.0446 z M 661,393.8734 c 25.10436,-8.63767 36.61273,-37.15437 24.94812,-61.81917 C 678.0218,315.29403 657.79884,304.74921 639.4222,307.79432 617.19256,311.47789 601,330.51812 601,352.97356 c 0,4.7758 2.56478,14.42793 5.29991,19.94537 9.34315,18.84747 33.70264,28.17909 54.70009,20.95447 z" /><path
       id="path15"
       style="fill:#7a9a6c;fill-opacity:1;stroke:none"
       d="M 369.46978,414.99545 C 343.9909,411.50494 323.11208,393.00282 316.43752,368 c -2.33898,-8.76178 -2.35282,-24.42806 -0.0292,-33 5.79517,-21.37825 23.73587,-39.09579 45.05174,-44.49135 7.62435,-1.92991 24.14696,-1.92535 32.35161,0.009 12.01874,2.83346 25.25871,10.9881 33.07782,20.37299 9.81459,11.77996 14.56793,25.24903 14.50785,41.10944 -0.0712,18.78647 -5.54333,32.19069 -18.37697,45.01486 -14.05043,14.04006 -33.83177,20.682 -53.55063,17.98059 z m 28.47833,-23.14107 C 419.83449,381.08097 428.67779,354.40276 417.78866,332 409.49932,314.94593 389.39724,304.55637 371.17849,307.91 348.562,312.07314 334,329.51165 334,352.43254 c 0,22.52404 15.62774,40.55649 37.5681,43.34891 9.33549,1.18816 18.87255,-0.23158 26.38001,-3.92707 z" /><path
       id="path12"
       style="fill:#7a9a6c;fill-opacity:1;stroke:none"
       d="m 388.67499,572.94395 c -51.00566,-5.92789 -80.76369,-29.80981 -85.76809,-68.83207 -4.33314,-33.78796 15.8905,-63.20253 49.65112,-72.21583 6.10206,-1.6291 10.9537,-2.12927 20.94198,-2.15893 20.40374,-0.0606 32.55127,3.09759 55,14.29927 16.05925,8.0134 31.65793,18.81148 55,38.07337 C 504.78751,499.67623 524.05909,515 524.86363,515 c 1.70148,0 16.00519,-13.53456 40.63637,-38.45123 29.32562,-29.66552 35.76966,-34.8079 50.95886,-40.66548 11.56519,-4.46001 20.55116,-6.1362 33.04114,-6.16332 20.86736,-0.0453 37.27647,5.98753 49.48052,18.19158 11.82408,11.82409 17.34047,26.33572 17.32979,45.58845 -0.008,13.72032 -1.90861,21.73839 -8.30592,35.03291 -9.99614,20.7734 -26.96405,34.14923 -51.50439,40.60096 -8.05826,2.11854 -11.14508,2.36613 -29.5,2.36613 -17.78941,0 -21.86769,-0.30627 -30.84372,-2.31631 -20.03606,-4.48675 -40.61587,-12.86366 -60.8313,-24.76107 l -9.73026,-5.72657 -3.04736,1.79681 c -19.32029,11.39178 -29.00698,15.9618 -46.62145,21.99523 -27.87578,9.54818 -60.95366,13.51213 -87.25092,10.45586 z m 257.67682,-21.44607 c 29.52538,-5.14879 46.7199,-22.51536 50.7402,-51.24788 2.79817,-19.99816 -5.13969,-37.35706 -20.79727,-45.48046 -8.97249,-4.65507 -15.78719,-6.18552 -27.29474,-6.12987 -11.52273,0.0557 -19.80299,2.04124 -30.5,7.31357 -11.88606,5.85838 -22.13046,14.61791 -41.35209,35.35828 -9.50318,10.25407 -21.30931,22.40498 -26.23583,27.00203 l -8.9573,8.35827 10.77261,5.59128 c 33.32555,17.29687 66.11153,24.03263 93.62442,19.23478 z m -217.32558,2.45079 c 12.98809,-1.61143 27.38951,-4.79718 38.97377,-8.62142 9.68516,-3.1973 34.16323,-14.39157 38.25646,-17.49537 1.5837,-1.20088 0.20674,-2.57987 -14,-14.02058 C 483.59041,506.83251 469.75,495.6378 461.5,488.93416 c -32.57536,-26.46951 -53.71797,-37.26142 -78.52602,-40.08239 -24.55521,-2.79221 -45.34565,5.96623 -55.24604,23.27362 -4.30066,7.51822 -6.11368,14.64499 -6.07359,23.87461 0.1334,30.71253 22.60892,51.24945 62.84565,57.42497 10.98939,1.68665 33.06052,1.94624 44.52623,0.5237 z" /><path
       style="fill:#7a9a6c;fill-opacity:1;stroke:none"
       d="M 567.2,715.8 C 566.30852,714.90852 566,704.77143 566,676.37143 566,632.34129 565.41281,635 575.13717,635 583.06221,635 585,636.11064 585,640.65283 v 3.58246 l 4.05582,-4.05582 c 5.25069,-5.25068 11.95798,-7.53893 20.50315,-6.99482 8.89156,0.56617 11.44103,2.98778 11.44103,10.86722 0,3.55573 -0.50614,6.1233 -1.34416,6.8188 -0.83991,0.69706 -5.12414,1.02435 -11.42018,0.87244 -12.16331,-0.29347 -14.18237,0.7628 -18.73566,9.80157 l -3,5.95532 -0.31856,23.48014 c -0.19683,14.50773 -0.72127,23.96539 -1.37244,24.75 -1.39173,1.67693 -15.9442,1.73466 -17.609,0.0699 z"
       id="path11" /><path
       style="fill:#7a9a6c;fill-opacity:1;stroke:none"
       d="m 296,717.11571 -2.5,-0.70545 -0.26173,-39.33853 c -0.18766,-28.20645 0.0592,-39.72526 0.87245,-40.70514 1.36094,-1.63983 12.0669,-1.87708 14.95502,-0.33141 C 310.4253,636.7628 311,638.1344 311,640.65155 v 3.58117 l 4.1276,-3.72903 c 6.7589,-6.10626 11.6548,-7.75617 21.73227,-7.32371 11.24972,0.48277 17.82004,3.76392 23.31005,11.6408 l 1.61753,2.32077 4.64251,-4.96322 c 6.52418,-6.97487 12.42518,-9.31747 23.36843,-9.27685 7.56544,0.0281 9.38846,0.40825 14.84953,3.09673 7.1119,3.50117 11.49333,8.64506 14.04906,16.49387 2.14457,6.58612 3.23701,60.67761 1.27324,63.0438 -1.54235,1.85842 -15.96161,2.07273 -17.77022,0.26412 -0.87074,-0.87074 -1.20603,-8.34777 -1.22196,-27.25 -0.0198,-23.42661 -0.21325,-26.47132 -1.92142,-30.23368 -2.3837,-5.25027 -6.68111,-7.60775 -14.05854,-7.71225 -7.44925,-0.10553 -11.7585,2.45527 -14.99808,8.9127 -2.43369,4.85105 -2.50901,5.64633 -2.83969,29.98323 -0.20659,15.20428 -0.74435,25.48979 -1.37244,26.25 -1.37026,1.65849 -15.93797,1.6999 -17.58787,0.05 -0.86915,-0.86915 -1.20154,-8.10649 -1.20558,-26.25 -0.003,-13.7775 -0.45022,-26.65058 -0.99367,-28.60685 -2.12359,-7.64429 -10.22432,-11.77508 -19.6415,-10.01576 -5.7171,1.06807 -10.62099,5.75137 -12.2806,11.72819 -0.62012,2.23326 -1.06983,13.95602 -1.07307,27.97198 -0.004,18.10068 -0.31782,24.37538 -1.25558,25.11969 -1.65418,1.31295 -12.58194,2.26242 -15.75,1.36846 z"
       id="path10" /><path
       style="fill:#7a9a6c;fill-opacity:1;stroke:none"
       d="M 165.46134,717.06359 C 157.41189,715.79569 152.3034,712.37766 148.92601,706 c -1.25036,-2.36112 -1.95515,-19.22297 -1.93314,-46.25 L 147,651 h -6.3 c -3.56667,0 -6.82063,-0.52063 -7.5,-1.2 -1.55804,-1.55804 -1.55804,-12.04196 0,-13.6 0.67458,-0.67458 3.90745,-1.2 7.3835,-1.2 h 6.18351 l 0.40723,-6.39538 c 0.55068,-8.64838 1.52122,-9.60462 9.7482,-9.60462 3.86033,0 7.18384,0.50628 7.87756,1.2 0.69804,0.69804 1.2,4.04444 1.2,8 v 6.8 h 10.8 c 7.06667,0 11.21481,0.41481 12,1.2 0.66,0.66 1.2,3.79417 1.2,6.96482 C 190,650.52656 189.15802,651 176.06574,651 H 166 v 21.4349 c 0,11.7892 0.44714,22.61096 0.99364,24.04837 1.36838,3.59911 6.5486,5.51673 14.90281,5.51673 8.55111,0 10.10988,1.20852 10.08824,7.82143 -0.0238,7.25797 -0.49387,7.57283 -11.67489,7.81945 -5.39539,0.119 -12.0772,-0.14078 -14.84846,-0.57729 z"
       id="path9" /><path
       id="path7"
       style="fill:#7a9a6c;fill-opacity:1;stroke:none"
       d="m 818.83587,717.13798 c -2.56527,-1.03372 -6.05103,-2.86706 -7.74614,-4.07409 -6.95312,-4.95105 -10.81069,-17.18978 -8.09101,-25.66997 4.06745,-12.6827 16.30382,-18.006 42.74916,-18.59757 l 13.24788,-0.29635 -0.002,-4.5 c -0.002,-5.99812 -2.92841,-10.61374 -8.2648,-13.03618 -8.24784,-3.74408 -20.17973,-1.51362 -24.35317,4.55241 C 821.7181,662.28668 820.5068,663 813.6679,663 c -7.79646,0 -9.15426,-1.16181 -8.16954,-6.99029 1.5153,-8.96896 10.95285,-18.28442 21.78219,-21.50039 7.09237,-2.1062 23.78079,-1.94878 29.92223,0.28227 10.88596,3.95461 17.76725,11.71952 20.43672,23.06096 1.79096,7.60901 1.92549,56.18246 0.1605,57.94745 -0.71309,0.71309 -4.14774,1.2 -8.46482,1.2 C 861.3672,717 860,716.02893 860,710.36957 v -2.7619 l -3.25,3.14494 c -5.62585,5.44399 -11.94173,7.60503 -23.25,7.9552 -7.98599,0.2473 -10.93936,-0.0689 -14.66413,-1.56983 z m 29.69354,-15.9078 C 855.59668,697.60711 859,692.42294 859,685.28068 v -3.58912 l -13.29475,0.60093 c -7.31212,0.33052 -14.62462,1.10489 -16.25,1.72084 -4.79499,1.81707 -7.45525,4.93103 -7.45525,8.72673 0,4.8296 1.5651,7.15016 6.33068,9.38647 5.24547,2.4615 14.44514,2.05325 20.19873,-0.89635 z" /><path
       style="fill:#7a9a6c;fill-opacity:1;stroke:none"
       d="M 739.92935,717.68206 C 729.44634,714.74218 720.30913,706.74739 717.99797,698.49275 716.04753,691.52646 716.63791,691 726.40052,691 c 8.41065,0 8.47758,0.0202 10.7595,3.25 3.40703,4.82224 5.81089,6.50359 11.1646,7.80894 13.54291,3.30205 26.07953,-3.3297 21.71412,-11.48656 -1.93855,-3.62221 -6.33004,-5.28267 -17.14616,-6.48309 -18.15384,-2.01481 -28.04521,-6.8117 -31.99977,-15.51855 -2.58524,-5.69199 -2.39831,-12.96014 0.49048,-19.07074 3.00409,-6.3545 6.58561,-9.68663 14.11136,-13.12878 5.00846,-2.29078 7.7434,-2.8139 16.62454,-3.17981 9.13297,-0.3763 11.59015,-0.11842 17.44891,1.83125 8.19774,2.72803 15.14274,9.03485 17.9003,16.25542 2.55877,6.70004 1.43761,7.72192 -8.47216,7.72192 -7.7356,0 -7.76711,-0.0108 -10.50937,-3.60611 -3.47117,-4.55094 -7.85581,-6.39431 -15.20475,-6.39234 -10.00418,0.003 -16.6514,5.26678 -14.33709,11.35387 1.36307,3.58513 4.85905,5.55744 11.66921,6.58333 3.23717,0.48766 9.48576,1.41844 13.88576,2.06841 10.2145,1.50889 16.60385,4.25851 20.87095,8.98168 4.37314,4.84054 6.0197,9.93716 5.33952,16.52747 -1.02914,9.97139 -6.04766,16.39044 -16.71047,21.37388 -4.80421,2.24533 -7.01809,2.60234 -17.5,2.8221 -7.48252,0.15687 -13.72065,-0.23097 -16.57065,-1.03023 z"
       id="path6" /><path
       id="path4"
       style="fill:#7a9a6c;fill-opacity:1;stroke:none"
       d="M 644.24767,717.17617 C 633.62266,713.39248 627.75,705.32046 627.75,694.5 c 0,-11.15417 6.2057,-18.8332 18.25,-22.58283 6.81288,-2.12099 24.96712,-4.16667 33.5,-3.77489 l 5,0.22956 -0.1261,-5.032 c -0.0718,-2.86332 -0.86166,-6.15462 -1.83283,-7.63682 C 679.96786,651.77581 673.36042,649 666.5854,649 c -7.35413,0 -12.02518,2.20958 -15.68397,7.41909 -1.57638,2.2445 -3.34182,4.64341 -3.92321,5.33091 -1.53459,1.81467 -14.38139,1.67406 -15.91531,-0.1742 -2.91711,-3.5149 3.23093,-16.60292 10.15543,-21.61901 7.12,-5.15769 16.04169,-7.23534 29.06303,-6.76807 9.69804,0.34801 11.98876,0.7746 16.9005,3.14732 6.14769,2.96977 10.51034,7.29512 14.06199,13.94176 2.2022,4.12126 2.25614,4.96334 2.25614,35.2222 v 31 l -7.91317,0.295 c -8.74854,0.32615 -9.54603,-0.13586 -9.57152,-5.545 -0.008,-1.7875 -0.21986,-3.25 -0.46986,-3.25 -0.25,0 -1.60819,1.15365 -3.0182,2.56366 -1.41001,1.41001 -5.14296,3.75359 -8.29545,5.20796 -7.71246,3.55807 -22.05077,4.22972 -29.98413,1.40455 z m 29.90516,-16.00811 c 5.6917,-2.7553 9.46301,-8.03234 10.40912,-14.56505 l 0.70922,-4.89699 -13.38558,0.53129 c -9.37523,0.37212 -14.67041,1.0525 -17.67401,2.27094 -9.73321,3.9484 -8.98731,14.56524 1.28842,18.33891 4.52455,1.66161 13.4028,0.8624 18.65283,-1.6791 z" /><path
       style="fill:#7a9a6c;fill-opacity:1;stroke:none"
       d="m 455.59073,717.4849 c -8.84691,-3.37306 -14.9185,-10.51236 -17.20552,-20.23116 C 436.56689,689.5267 436.41055,637.98945 438.2,636.2 c 0.71244,-0.71244 4.14295,-1.2 8.4433,-1.2 10.6858,0 10.3567,-0.92795 10.3567,29.20227 0,27.61197 0.70141,31.55772 6.10672,34.35292 7.29157,3.77061 17.35422,2.61303 23.39562,-2.69139 C 492.15777,690.89827 493,686.23061 493,659.85368 493,633.53271 492.39122,635 503.31181,635 c 4.22788,0 6.83327,0.46988 7.57747,1.36659 0.81326,0.97992 1.06012,12.51012 0.87245,40.75 L 511.5,716.5 l -7.47802,0.29841 C 495.40176,717.1424 494,716.16479 494,709.80887 494,707.71399 493.76125,706 493.46945,706 c -0.2918,0 -1.83582,1.48662 -3.43115,3.3036 -1.59533,1.81698 -5.29408,4.60769 -8.21945,6.20158 -4.48306,2.4426 -6.65452,2.94294 -13.81885,3.18409 -5.73818,0.19315 -9.7702,-0.19817 -12.40927,-1.20437 z"
       id="path3" /><path
       id="path2"
       style="fill:#7a9a6c;fill-opacity:1;stroke:none"
       d="m 260.18402,665.5 c -0.49234,-4.67427 -4.60547,-10.80743 -8.83596,-13.17544 -13.17052,-7.37219 -28.19999,-0.83663 -31.86168,13.85504 l -0.66786,2.6796 20.84074,-0.1796 L 260.5,668.5 Z M 227.5,717.65095 c -19.82459,-6.54929 -28.52984,-21.05369 -27.25756,-45.41562 0.63313,-12.12343 3.2155,-19.30388 9.42708,-26.21265 8.15236,-9.06739 17.61789,-12.9892 31.40234,-13.01081 11.98689,-0.0188 20.85072,3.73252 28.29854,11.97636 6.55966,7.26076 10.6296,18.63787 10.6296,29.714 0,8.78073 1.83545,8.29777 -31.53518,8.29777 -27.40343,0 -29.46328,0.12243 -29.44286,1.75 0.037,2.95042 3.56873,9.60325 6.60194,12.43638 3.99535,3.73181 7.43622,4.81714 15.1912,4.79166 8.17385,-0.0269 13.80808,-2.35936 17.80788,-7.37225 2.79814,-3.50687 3.06389,-3.60573 9.69276,-3.60576 8.45845,-4e-5 11.10069,1.20466 10.23214,4.66522 -1.84707,7.35931 -11.42945,16.97316 -20.40079,20.46778 -7.01189,2.73136 -24.37143,3.59116 -30.64709,1.51792 z" /></g></svg>
